<mxfile host="app.diagrams.net" modified="2021-11-11T14:10:58.943Z" agent="5.0 (Macintosh; Intel Mac OS X 10_15_7) AppleWebKit/537.36 (KHTML, like Gecko) Chrome/95.0.4638.69 Safari/537.36" etag="OktxYvrnUbuL_FyiEi0h" version="15.7.3" type="github">
  <diagram id="64iXXXK9wcR_y5qOj70M" name="Page-1">
    <mxGraphModel dx="2066" dy="1133" grid="0" gridSize="10" guides="1" tooltips="1" connect="1" arrows="1" fold="1" page="1" pageScale="1" pageWidth="827" pageHeight="1169" math="0" shadow="0">
      <root>
        <mxCell id="0" />
        <mxCell id="1" parent="0" />
        <mxCell id="NdFDT2MqYunpTDE2g-q0-1" value="" style="rounded=0;whiteSpace=wrap;html=1;dashed=1;dashPattern=1 2;" vertex="1" parent="1">
          <mxGeometry x="41" y="213" width="511" height="200" as="geometry" />
        </mxCell>
        <mxCell id="NdFDT2MqYunpTDE2g-q0-2" value="" style="rounded=0;whiteSpace=wrap;html=1;dashed=1;dashPattern=1 2;" vertex="1" parent="1">
          <mxGeometry x="40" y="101" width="513" height="73" as="geometry" />
        </mxCell>
        <mxCell id="NdFDT2MqYunpTDE2g-q0-3" value="人群准入" style="rounded=0;whiteSpace=wrap;html=1;" vertex="1" parent="1">
          <mxGeometry x="159" y="108" width="99" height="51" as="geometry" />
        </mxCell>
        <mxCell id="NdFDT2MqYunpTDE2g-q0-4" value="转化任务" style="rounded=0;whiteSpace=wrap;html=1;" vertex="1" parent="1">
          <mxGeometry x="388" y="110" width="101" height="49" as="geometry" />
        </mxCell>
        <mxCell id="NdFDT2MqYunpTDE2g-q0-5" value="" style="rounded=0;whiteSpace=wrap;html=1;" vertex="1" parent="1">
          <mxGeometry x="149" y="250" width="116" height="141" as="geometry" />
        </mxCell>
        <mxCell id="NdFDT2MqYunpTDE2g-q0-6" value="" style="rounded=0;whiteSpace=wrap;html=1;" vertex="1" parent="1">
          <mxGeometry x="364" y="250" width="131" height="136" as="geometry" />
        </mxCell>
        <mxCell id="NdFDT2MqYunpTDE2g-q0-7" value="任务领取" style="rounded=0;whiteSpace=wrap;html=1;" vertex="1" parent="1">
          <mxGeometry x="169" y="268" width="72" height="42" as="geometry" />
        </mxCell>
        <mxCell id="NdFDT2MqYunpTDE2g-q0-8" value="任务过期" style="rounded=0;whiteSpace=wrap;html=1;" vertex="1" parent="1">
          <mxGeometry x="169" y="330" width="70" height="48" as="geometry" />
        </mxCell>
        <mxCell id="NdFDT2MqYunpTDE2g-q0-9" value="任务校验" style="rounded=0;whiteSpace=wrap;html=1;" vertex="1" parent="1">
          <mxGeometry x="390" y="262" width="83" height="44" as="geometry" />
        </mxCell>
        <mxCell id="NdFDT2MqYunpTDE2g-q0-10" value="奖励派发" style="rounded=0;whiteSpace=wrap;html=1;" vertex="1" parent="1">
          <mxGeometry x="392" y="322" width="81" height="46" as="geometry" />
        </mxCell>
        <mxCell id="NdFDT2MqYunpTDE2g-q0-11" value="" style="rounded=0;whiteSpace=wrap;html=1;dashed=1;dashPattern=1 2;" vertex="1" parent="1">
          <mxGeometry x="43" y="458" width="511" height="125" as="geometry" />
        </mxCell>
        <mxCell id="NdFDT2MqYunpTDE2g-q0-12" value="拉菲" style="rounded=0;whiteSpace=wrap;html=1;" vertex="1" parent="1">
          <mxGeometry x="152" y="465" width="97" height="44" as="geometry" />
        </mxCell>
        <mxCell id="NdFDT2MqYunpTDE2g-q0-13" value="安全" style="rounded=0;whiteSpace=wrap;html=1;" vertex="1" parent="1">
          <mxGeometry x="287" y="467" width="103" height="42" as="geometry" />
        </mxCell>
        <mxCell id="NdFDT2MqYunpTDE2g-q0-14" value="BI" style="rounded=0;whiteSpace=wrap;html=1;" vertex="1" parent="1">
          <mxGeometry x="428" y="466" width="97" height="44" as="geometry" />
        </mxCell>
        <mxCell id="NdFDT2MqYunpTDE2g-q0-15" value="阿拉丁" style="rounded=0;whiteSpace=wrap;html=1;" vertex="1" parent="1">
          <mxGeometry x="152" y="533" width="96" height="43" as="geometry" />
        </mxCell>
        <mxCell id="NdFDT2MqYunpTDE2g-q0-16" value="metaq" style="rounded=0;whiteSpace=wrap;html=1;" vertex="1" parent="1">
          <mxGeometry x="287" y="533" width="104" height="42" as="geometry" />
        </mxCell>
        <mxCell id="NdFDT2MqYunpTDE2g-q0-17" value="tair" style="rounded=0;whiteSpace=wrap;html=1;" vertex="1" parent="1">
          <mxGeometry x="428" y="534" width="104" height="42" as="geometry" />
        </mxCell>
        <mxCell id="NdFDT2MqYunpTDE2g-q0-18" value="互动场景" style="text;html=1;strokeColor=none;fillColor=none;align=center;verticalAlign=middle;whiteSpace=wrap;rounded=0;" vertex="1" parent="1">
          <mxGeometry x="53" y="123" width="60" height="30" as="geometry" />
        </mxCell>
        <mxCell id="NdFDT2MqYunpTDE2g-q0-19" value="业务能力" style="text;html=1;strokeColor=none;fillColor=none;align=center;verticalAlign=middle;whiteSpace=wrap;rounded=0;" vertex="1" parent="1">
          <mxGeometry x="49" y="282" width="60" height="30" as="geometry" />
        </mxCell>
        <mxCell id="NdFDT2MqYunpTDE2g-q0-20" value="基础依赖" style="text;html=1;strokeColor=none;fillColor=none;align=center;verticalAlign=middle;whiteSpace=wrap;rounded=0;" vertex="1" parent="1">
          <mxGeometry x="53" y="503" width="60" height="30" as="geometry" />
        </mxCell>
      </root>
    </mxGraphModel>
  </diagram>
</mxfile>
